<svg version="1.1" id="Layer_1" xmlns="http://www.w3.org/2000/svg" xmlns:xlink="http://www.w3.org/1999/xlink" x="0px" y="0px"
	 width="100%" viewBox="0 0 500 150" enable-background="new 0 0 500 150" xml:space="preserve">
<path fill="#000000" opacity="1.000000" stroke="none" 
	d="
M352.000000,151.000000 
	C234.666702,151.000000 117.833420,151.000000 1.000094,151.000000 
	C1.000063,101.000061 1.000063,51.000118 1.000031,1.000134 
	C167.666550,1.000090 334.333099,1.000090 500.999725,1.000045 
	C500.999817,50.999863 500.999817,100.999725 500.999908,150.999786 
	C451.500000,151.000000 402.000000,151.000000 352.000000,151.000000 
M232.807068,72.001549 
	C231.652908,72.893349 230.498749,73.785149 230.128021,74.071587 
	C231.363022,67.779442 232.755814,61.075157 233.968506,54.338451 
	C234.570572,50.993988 232.454956,48.489883 229.667252,48.320866 
	C228.192886,48.231480 226.526093,51.315594 225.004242,52.906284 
	C222.875198,51.597069 220.191956,48.849712 217.092453,48.248550 
	C208.095688,46.503597 199.075760,46.942265 190.607697,51.115265 
	C185.595596,53.585190 182.282593,58.420712 183.021606,62.034103 
	C183.760696,65.647827 188.673508,69.349892 193.761673,69.986908 
	C199.569473,70.714012 205.427750,71.122772 211.183197,72.131462 
	C212.923767,72.436508 214.395325,74.276375 215.990112,75.413216 
	C214.825485,76.971970 213.919693,79.507607 212.445526,79.898224 
	C208.687134,80.894096 204.653946,81.394592 200.770630,81.217522 
	C197.231049,81.056114 193.743896,79.744194 190.233643,78.939377 
	C195.088226,85.141495 212.347427,85.922295 217.242676,80.847366 
	C218.603241,79.436874 219.465225,76.483063 218.980789,74.654625 
	C218.498032,72.832481 216.283646,70.905968 214.383484,70.162300 
	C211.899689,69.190201 208.956528,69.458542 206.250351,68.973663 
	C201.029556,68.038231 195.685486,67.412819 190.676865,65.784340 
	C186.245438,64.343529 185.576065,59.795326 188.988037,56.610973 
	C195.704102,50.342937 204.065552,48.864689 212.634521,50.402790 
	C221.420258,51.979805 224.999985,57.230679 225.000000,66.139061 
	C225.000000,72.044373 225.000000,77.949692 225.000000,83.855003 
	C225.578201,84.147354 226.156418,84.439705 226.734619,84.732056 
	C229.059128,81.633324 231.383636,78.534584 233.720840,75.418945 
	C234.498901,84.908257 236.110840,85.881531 243.757721,82.341972 
	C246.794754,83.191704 249.871796,83.525269 252.942642,83.475586 
	C255.317551,83.437164 258.242126,81.889046 259.947784,82.812386 
	C264.537292,85.296913 268.026428,83.855080 271.505585,81.333542 
	C272.015900,82.206039 272.701935,83.899231 273.021790,83.832680 
	C274.196289,83.588264 275.598846,83.017715 276.277435,82.098686 
	C277.850555,79.968117 279.051605,77.562805 281.002502,74.252502 
	C281.002502,77.050743 280.631165,78.777512 281.108765,80.223969 
	C281.570221,81.621590 282.860809,83.740845 283.866821,83.786446 
	C287.689026,83.959694 291.544159,83.430321 295.385437,83.143196 
	C296.357758,83.070518 297.669495,82.460411 298.237061,82.884499 
	C301.643005,85.429359 304.137207,83.921806 306.228699,81.209373 
	C307.853546,79.102142 309.128052,76.724754 310.660339,74.306374 
	C311.964142,77.663239 308.802124,83.143036 314.767853,83.902924 
	C320.619171,84.648247 321.880920,79.520988 324.235229,75.602226 
	C318.291290,72.901405 319.771698,81.505127 314.641449,80.733238 
	C314.445862,79.130714 313.893066,77.272919 314.063202,75.483871 
	C314.532410,70.550163 309.988953,70.080948 307.418060,68.174736 
	C305.774628,66.956177 302.851257,70.606239 304.301361,72.458496 
	C308.087982,77.295364 303.145233,78.327538 300.975281,81.743019 
	C300.377472,79.281525 300.014709,77.787811 299.298035,74.836929 
	C296.950470,77.181305 295.161133,78.968193 293.022644,81.103752 
	C292.715454,79.929733 292.174011,79.029236 292.332733,78.276382 
	C293.325897,73.566559 297.493103,74.419037 300.817017,73.728050 
	C291.592285,66.958488 289.818878,77.212250 284.887512,81.451340 
	C284.186981,77.914459 284.325317,74.776810 282.861023,72.869774 
	C282.149902,71.943680 278.439056,73.320892 277.345520,73.476349 
	C278.436829,67.474663 280.028931,60.459835 280.764587,53.356316 
	C280.932739,51.733002 278.146393,49.803703 276.719818,48.015224 
	C275.478729,49.465912 273.671814,50.733120 273.128082,52.409931 
	C272.295044,54.979000 272.154724,57.822937 272.042084,60.563438 
	C271.878021,64.555603 272.272949,68.583267 271.928070,72.552223 
	C271.525452,77.185699 268.313446,82.545944 262.764557,80.336014 
	C266.225006,78.552216 269.813660,76.174179 266.499481,72.520744 
	C265.227325,71.118355 261.115082,72.292282 257.999908,72.292282 
	C257.999908,66.864243 258.066711,60.246101 257.939209,53.631710 
	C257.915863,52.420574 257.102203,51.224670 256.653351,50.021732 
	C256.102264,51.288811 255.106934,52.544769 255.074890,53.824844 
	C254.912369,60.318996 255.093964,66.821236 254.968079,73.317017 
	C254.876785,78.028732 251.870743,80.811134 248.402191,80.706261 
	C249.183426,78.648872 250.445724,76.340988 250.764923,73.909309 
	C250.870575,73.104385 247.909317,70.910576 247.444763,71.187546 
	C245.412476,72.399178 243.629517,74.152367 242.053101,75.967056 
	C240.741470,77.476929 239.843842,79.346420 238.762848,81.056618 
	C237.401474,79.061478 237.563416,77.197128 236.895828,75.703552 
	C236.254776,74.269348 234.754196,73.219345 232.807068,72.001549 
z"/>
<path fill="#F3F9FA" opacity="1.000000" stroke="none" 
	d="
M233.219193,72.001022 
	C234.754196,73.219345 236.254776,74.269348 236.895828,75.703552 
	C237.563416,77.197128 237.401474,79.061478 238.762848,81.056618 
	C239.843842,79.346420 240.741470,77.476929 242.053101,75.967056 
	C243.629517,74.152367 245.412476,72.399178 247.444763,71.187546 
	C247.909317,70.910576 250.870575,73.104385 250.764923,73.909309 
	C250.445724,76.340988 249.183426,78.648872 248.402191,80.706261 
	C251.870743,80.811134 254.876785,78.028732 254.968079,73.317017 
	C255.093964,66.821236 254.912369,60.318996 255.074890,53.824844 
	C255.106934,52.544769 256.102264,51.288811 256.653351,50.021732 
	C257.102203,51.224670 257.915863,52.420574 257.939209,53.631710 
	C258.066711,60.246101 257.999908,66.864243 257.999908,72.292282 
	C261.115082,72.292282 265.227325,71.118355 266.499481,72.520744 
	C269.813660,76.174179 266.225006,78.552216 262.764557,80.336014 
	C268.313446,82.545944 271.525452,77.185699 271.928070,72.552223 
	C272.272949,68.583267 271.878021,64.555603 272.042084,60.563438 
	C272.154724,57.822937 272.295044,54.979000 273.128082,52.409931 
	C273.671814,50.733120 275.478729,49.465912 276.719818,48.015228 
	C278.146393,49.803703 280.932739,51.733002 280.764587,53.356316 
	C280.028931,60.459835 278.436829,67.474663 277.345520,73.476349 
	C278.439056,73.320892 282.149902,71.943680 282.861023,72.869774 
	C284.325317,74.776810 284.186981,77.914459 284.887512,81.451340 
	C289.818878,77.212250 291.592285,66.958488 300.817017,73.728050 
	C297.493103,74.419037 293.325897,73.566559 292.332733,78.276382 
	C292.174011,79.029236 292.715454,79.929733 293.022644,81.103752 
	C295.161133,78.968193 296.950470,77.181305 299.298035,74.836929 
	C300.014709,77.787811 300.377472,79.281525 300.975281,81.743019 
	C303.145233,78.327538 308.087982,77.295364 304.301361,72.458496 
	C302.851257,70.606239 305.774628,66.956177 307.418060,68.174736 
	C309.988953,70.080948 314.532410,70.550163 314.063202,75.483871 
	C313.893066,77.272919 314.445862,79.130714 314.641449,80.733238 
	C319.771698,81.505127 318.291290,72.901405 324.235229,75.602226 
	C321.880920,79.520988 320.619171,84.648247 314.767853,83.902924 
	C308.802124,83.143036 311.964142,77.663239 310.660339,74.306374 
	C309.128052,76.724754 307.853546,79.102142 306.228699,81.209373 
	C304.137207,83.921806 301.643005,85.429359 298.237061,82.884499 
	C297.669495,82.460411 296.357758,83.070518 295.385437,83.143196 
	C291.544159,83.430321 287.689026,83.959694 283.866821,83.786446 
	C282.860809,83.740845 281.570221,81.621590 281.108765,80.223969 
	C280.631165,78.777512 281.002502,77.050743 281.002502,74.252502 
	C279.051605,77.562805 277.850555,79.968117 276.277435,82.098686 
	C275.598846,83.017715 274.196289,83.588264 273.021790,83.832680 
	C272.701935,83.899231 272.015900,82.206039 271.505585,81.333542 
	C268.026428,83.855080 264.537292,85.296913 259.947784,82.812386 
	C258.242126,81.889046 255.317551,83.437164 252.942642,83.475586 
	C249.871796,83.525269 246.794754,83.191704 243.757721,82.341972 
	C236.110840,85.881531 234.498901,84.908257 233.720840,75.418945 
	C231.383636,78.534584 229.059128,81.633324 226.734619,84.732056 
	C226.156418,84.439705 225.578201,84.147354 225.000000,83.855003 
	C225.000000,77.949692 225.000000,72.044373 225.000000,66.139061 
	C224.999985,57.230679 221.420258,51.979805 212.634521,50.402790 
	C204.065552,48.864689 195.704102,50.342937 188.988037,56.610973 
	C185.576065,59.795326 186.245438,64.343529 190.676865,65.784340 
	C195.685486,67.412819 201.029556,68.038231 206.250351,68.973663 
	C208.956528,69.458542 211.899689,69.190201 214.383484,70.162300 
	C216.283646,70.905968 218.498032,72.832481 218.980789,74.654625 
	C219.465225,76.483063 218.603241,79.436874 217.242676,80.847366 
	C212.347427,85.922295 195.088226,85.141495 190.233643,78.939377 
	C193.743896,79.744194 197.231049,81.056114 200.770630,81.217522 
	C204.653946,81.394592 208.687134,80.894096 212.445526,79.898224 
	C213.919693,79.507607 214.825485,76.971970 215.990112,75.413216 
	C214.395325,74.276375 212.923767,72.436508 211.183197,72.131462 
	C205.427750,71.122772 199.569473,70.714012 193.761673,69.986908 
	C188.673508,69.349892 183.760696,65.647827 183.021606,62.034103 
	C182.282593,58.420712 185.595596,53.585190 190.607697,51.115265 
	C199.075760,46.942265 208.095688,46.503597 217.092453,48.248550 
	C220.191956,48.849712 222.875198,51.597069 225.004242,52.906284 
	C226.526093,51.315594 228.192886,48.231480 229.667252,48.320866 
	C232.454956,48.489883 234.570572,50.993988 233.968506,54.338451 
	C232.755814,61.075157 231.363022,67.779442 230.128021,74.071587 
	C230.498749,73.785149 231.652908,72.893349 233.219193,72.001022 
M229.001022,53.870396 
	C228.572205,58.012180 228.143387,62.153965 227.714569,66.295746 
	C228.123474,66.335304 228.532379,66.374863 228.941284,66.414421 
	C229.627426,62.827133 230.452591,59.256645 230.889709,55.639259 
	C230.984283,54.856804 229.683197,53.905693 229.001022,53.870396 
M277.752258,53.228451 
	C277.172516,53.312592 276.103882,53.334984 276.084320,53.489876 
	C275.538849,57.808842 275.099731,62.141239 274.643036,66.471420 
	C275.108734,66.538940 275.574432,66.606468 276.040131,66.673996 
	C276.687317,62.461880 277.334503,58.249763 277.752258,53.228451 
z"/>
<path fill="#000000" opacity="1.000000" stroke="none" 
	d="
M229.012970,53.451332 
	C229.683197,53.905693 230.984283,54.856804 230.889709,55.639259 
	C230.452591,59.256645 229.627426,62.827133 228.941284,66.414421 
	C228.532379,66.374863 228.123474,66.335304 227.714569,66.295746 
	C228.143387,62.153965 228.572205,58.012180 229.012970,53.451332 
z"/>
<path fill="#000000" opacity="1.000000" stroke="none" 
	d="
M277.867004,53.633049 
	C277.334503,58.249763 276.687317,62.461880 276.040131,66.673996 
	C275.574432,66.606468 275.108734,66.538940 274.643036,66.471420 
	C275.099731,62.141239 275.538849,57.808842 276.084320,53.489876 
	C276.103882,53.334984 277.172516,53.312592 277.867004,53.633049 
z"/>
</svg>